<svg xmlns="http://www.w3.org/2000/svg" viewBox="0 0 438 64"><style type="text/css">  
	.st0{fill:#FAF4F2;}
</style><path class="st0" d="M22.9 13.8H4.1v0.9c0 0 3.2-0.1 4.7 2 0.3 0.4 0.5 0.9 0.7 1.4 0.1 0.5 0.2 0.9 0.2 1.3v38.1l6.8 4.3c-0.3-0.5-0.6-1-0.7-1.6 -0.1-0.4-0.1-0.8-0.1-1.2V42.4h6.3c0 0 17 0.3 17-15.4C38.9 15.2 26.6 13.9 22.9 13.8zM32.4 28.6c0 12.3-9.7 12.5-10.4 12.5h-6.4V19.7c0-0.3 0-0.6 0.1-0.8 0.1-0.8 0.5-1.6 0.9-2.1 1.6-1.9 4.6-1.7 5.4-1.7C32.8 15 32.4 27.3 32.4 28.6z"/><path class="st0" d="M73.1 13.1c-11.8 0-21.4 11.2-21.4 25.2 0 13.9 9.6 25.2 21.4 25.2 11.8 0 21.4-11.3 21.4-25.1C94.5 24.3 84.9 13.1 73.1 13.1zM73.1 61.7c-8.4 0-15.2-10.6-15.2-23.8 0-13.1 6.8-23.8 15.2-23.8 8.5 0 15.3 10.6 15.3 23.8C88.4 51.1 81.5 61.7 73.1 61.7z"/><path class="st0" d="M122.5 33.6c-14.8-7.3-8.8-15.6-8.8-15.6 0.7-0.9 1.4-1.8 2.4-2.5 2.2-1.6 5.3-1.5 7.9-0.8 1.1 0.3 2.1 0.7 3 1.4 0.7 0.5 1.4 1.3 1.9 2 1.1 1.4 1.8 3 2.4 4.6 0.5 1.4 0.9 3 0.9 4.5h1.5v-6.3l0.1-7.7h-1.3l-0.1 0.9c-0.1 0.6-0.3 1.2-0.7 1.6 -1 1.3-2.5 0.2-3.5-0.5 -1.3-0.8-2.8-1.5-4.3-1.9 -1-0.3-2.2-0.5-3.2-0.5h-0.2c-0.6 0-1.2 0-1.8 0.1 -1.7 0.2-3.4 0.7-5 1.4 -2.2 1.1-4 2.7-5.1 4.9 -1 2.1-1.2 4.5-1 6.7 0 0 0 6.8 7.4 11 7.4 4.3 16.3 9.6 15.2 16.2 -0.6 3.7-2.7 7.3-6.6 8.1 -1.4 0.3-2.9 0.3-4.3 0.1 -0.7-0.1-1.2-0.3-1.9-0.5 -1-0.3-1.9-0.7-2.8-1.4 -0.7-0.6-1.4-1.2-2-2 -1-1.4-1.8-2.9-2.4-4.5 -0.8-2.1-1.2-4.4-1.3-6.7v-0.3h-1.5l0.1 8.4 -0.1 7.9h1.3l0.2-1c0.2-0.7 0.4-1.4 0.9-1.9 0.6-0.5 1.3-0.3 1.9-0.1 0.7 0.4 1.4 0.9 2.1 1.3 0.7 0.4 1.4 0.7 2.1 1 1.4 0.6 3 0.9 4.5 1.1 1.6 0.2 3.2 0.1 4.7-0.1 2.2-0.4 4.3-1.1 6.2-2.4 2.5-1.7 4.1-4.2 4.7-7.1 0.3-1.2 0.4-2.4 0.4-3.5C136.3 44 131.4 37.9 122.5 33.6z"/><path class="st0" d="M161 56.3V18.1l-6.8-4.3c0.3 0.5 0.5 1 0.7 1.6 0.1 0.4 0.1 0.8 0.1 1.2v39.6c0 0.4-0.1 0.9-0.2 1.3 -1 3.6-5.4 3.4-5.4 3.4v0.9h17.1v-0.9C166.6 60.9 161.2 61.2 161 56.3z"/><path class="st0" d="M179.7 28.1h1.6c0-6 1.2-12.9 9.1-12.9h5.1v7 0.1 0.1 35.2l6.8 4.3c-0.3-0.5-0.5-1-0.7-1.6 -0.1-0.4-0.1-0.8-0.1-1.2v-2.6 -0.3V15.2h5.2c7.9 0 9.1 6.9 9.1 12.9h1.6V13.8H179.7V28.1z"/><path class="st0" d="M241.9 56.3V18.1l-6.8-4.3c0.3 0.5 0.5 1 0.7 1.6 0.1 0.4 0.1 0.8 0.1 1.2v39.6c0 0.4-0.1 0.9-0.2 1.3 -1 3.6-5.4 3.4-5.4 3.4v0.9h17.1v-0.9C247.5 60.9 242.1 61.2 241.9 56.3z"/><path class="st0" d="M286.8 36.7l-3.1 8.3c-0.8 2.1-1.6 4.2-2.4 6.3l-1 2.6 -0.1-0.1 -11.9-31.3c-0.2-0.5-0.3-1.1-0.5-1.6 -1.1-6.3 6-5.9 6-5.9v-1h-13.2v1l0.5 0.1c3.8 1.1 5.1 5.7 6.2 8.9 0.9 2.3 1.8 4.7 2.7 7l3.2 8.3c1.1 2.7 2 5.4 3.1 8 0.7 2 1.5 4.1 2.2 6.1 0.3 0.7 0.6 1.4 0.9 2.2 0 0.1 0.1 0.1 0.1 0.2l2.4 6 0.9 2.3 0.9-2.3 2.5-6.5 4.5-11.7 0.5-1.3L305.7 2.4c0 0 0.4-0.8 0.6-1.2 0.4-0.5 0.8-0.9 1.2-1.2l-7.9 1.6C299.6 1.7 287.8 33.9 286.8 36.7z"/><path class="st0" d="M340.9 60.5h-7.3c-0.1 0-5.3 0.3-5.6-4V38.3h4.9c5.3 0.2 6 4.3 6 8.7h1.2V28.2h-1.2c0 4.3-0.7 8.6-6.2 8.8h-4.7V19.2c0.3-4.4 5.5-4.1 5.6-4.1h5.7c7.9 0 9.1 4.7 9.1 10.8h1.6V13.8h-3.8H333.6h-5.6 -5.9 -5.6v0.9c0 0 5.4-0.2 5.7 4.7v37.2c-0.5 4.5-5.6 4.3-5.6 4.3v0.9h5.7 29.5V48.4h-1.6C350 54.4 348.8 60.5 340.9 60.5z"/><polygon class="st0" points="423.4 35.4 423.4 22.6 418.4 22.6 418.4 35.4 405.8 35.4 405.8 40 418.4 40 418.4 52.8 423.4 52.8 423.4 40 435.9 40 435.9 35.4 "/><polygon class="st0" points="386.4 22.6 381.4 22.6 381.4 35.4 368.8 35.4 368.8 40 381.4 40 381.4 52.8 386.4 52.8 386.4 40 399 40 399 35.4 386.4 35.4 "/></svg>